<?xml version="1.0" encoding="utf-8"?>
<!-- Generator: Adobe Illustrator 22.0.0, SVG Export Plug-In . SVG Version: 6.00 Build 0)  -->
<svg version="1.1" id="Layer_1" xmlns="http://www.w3.org/2000/svg" xmlns:xlink="http://www.w3.org/1999/xlink" x="0px" y="0px"
	 viewBox="0 0 50 50" style="enable-background:new 0 0 50 50;" xml:space="preserve">
<style type="text/css">
	.st0{fill:#F15A24;}
	.st1{fill:#E6E6E6;}
	.st2{fill:#1A1A1A;}
	.st3{fill:#FF902A;}
	.st4{fill:#42210B;}
</style>
<circle class="st0" cx="17.6" cy="18" r="16.6"/>
<path d="M17.7,32.1c0,0.4,0.4,0.8,0.8,0.8c0,0,0,0,0.1,0c0.5,0,0.8-0.4,0.8-0.9c-0.3-3.8-1.9-7.4-4.4-10.2l2.6-2.6l2.7,2.7
	c0.3,0.3,0.9,0.3,1.2,0c0.3-0.3,0.3-0.8,0-1.1L18.7,18l2.6-2.6c1,0.9,2.1,1.7,3.2,2.3c0.4,0.2,0.9,0.1,1.1-0.3s0.1-0.9-0.3-1.1l0,0
	c-1-0.6-2-1.3-2.9-2.1l7.3-7.3c-0.4-0.4-0.8-0.8-1.2-1.2L21.4,13c-2.3-2.6-3.8-5.9-4-9.4l-0.1-2.1c0,0,0-0.1,0-0.1
	c-0.5,0-1.1,0-1.6,0.1c0,0,0,0.1,0,0.1l0.1,2.1c0.3,3.9,1.8,7.6,4.5,10.5l-2.6,2.6L6.5,5.7C6.1,6.1,5.7,6.5,5.3,6.9L16.4,18
	l-2.6,2.6c-2.9-2.6-6.6-4.2-10.5-4.5L1.2,16c0,0-0.1,0-0.1,0C1.1,16.5,1,17.1,1,17.6c0,0,0.1,0,0.1,0l2.1,0.1c3.5,0.2,6.8,1.6,9.4,4
	l-7.3,7.3c0.4,0.4,0.8,0.8,1.2,1.2l7.3-7.3C16.1,25.5,17.4,28.7,17.7,32.1z"/>
<path class="st1" d="M19.6,32c-1.8-8,3.2-16,11.2-17.8s16,3.2,17.8,11.2c1.8,8-3.2,16-11.2,17.8c-0.5,0.1-1.1,0.2-1.7,0.3"/>
<path class="st2" d="M48.9,27c-0.3-2.4-1.1-4.6-2.4-6.6c-0.4-0.6-0.8-1.1-1.3-1.7H44c-0.4,0-0.7,0.2-0.8,0.6l-1.6,5.4l-2.5,1.3
	l-4.2-2.8v-3.3l4.6-3.2c0.3-0.2,0.4-0.6,0.3-0.9l-0.3-1c-3.5-1.4-7.4-1.4-10.9,0l-0.3,1c-0.1,0.3,0,0.7,0.3,0.9l4.6,3.2v3.3L29,26.1
	l-3.4-1.4L24.1,21c-0.1-0.2-0.2-0.3-0.4-0.4l-1.5-0.7c-1.8,2.3-2.8,5.1-3,8.1c0,0.3,0,0.6,0,0.9c0,0.3,0,0.6,0,0.9l1.3,0.6
	c0.3,0.2,0.7,0.1,1-0.2l3.8-3.8l3.3,1.3l1.5,5.4c0.1,0.4,0.4,0.6,0.8,0.6h6.3l1.8,1.8l-2.2,4.4c-0.1,0.3-0.1,0.6,0.1,0.9l1.7,2.1
	c3.6-1.1,6.7-3.5,8.5-6.8L46.4,35c-0.1-0.3-0.4-0.5-0.7-0.5h-5.5l-1.9-1.9l1.4-4.9l2.6-1.3l4.6,3c0.2,0.2,0.6,0.2,0.8,0.1l1.3-0.6
	c0,0,0-0.1,0-0.1C49,28.2,49,27.6,48.9,27z"/>
<path class="st3" d="M4.3,42.3l2.7,2c3.7,2.8,8.2,4.3,12.8,4.3H22c4.6,0,9.1-1.5,12.8-4.3l2.7-2c0.7-0.5,0.9-1.6,0.3-2.3
	c-0.1-0.1-0.1-0.2-0.2-0.2l-2.4-2.2C31.3,34,26.2,32,20.9,32c-5.3,0-10.5,2-14.4,5.6l-2.4,2.2c-0.7,0.6-0.7,1.7-0.1,2.3
	C4.1,42.2,4.2,42.3,4.3,42.3L4.3,42.3z"/>
<g>
	<path class="st4" d="M28.3,41.1H11.8c-0.5,0-0.8-0.4-0.8-0.8c0-0.5,0.4-0.8,0.8-0.8h16.6c0.5,0,0.8,0.4,0.8,0.8
		C29.1,40.8,28.8,41.1,28.3,41.1z"/>
	<path class="st4" d="M13.4,42.8c-0.5,0-0.8-0.4-0.8-0.8v-3.3c0-0.5,0.4-0.8,0.8-0.8c0.5,0,0.8,0.4,0.8,0.8V42
		C14.2,42.4,13.9,42.8,13.4,42.8z"/>
	<path class="st4" d="M16.7,42.8c-0.5,0-0.8-0.4-0.8-0.8v-3.3c0-0.5,0.4-0.8,0.8-0.8c0.5,0,0.8,0.4,0.8,0.8V42
		C17.6,42.4,17.2,42.8,16.7,42.8z"/>
	<path class="st4" d="M20,42.8c-0.5,0-0.8-0.4-0.8-0.8v-3.3c0-0.5,0.4-0.8,0.8-0.8c0.5,0,0.8,0.4,0.8,0.8V42
		C20.9,42.4,20.5,42.8,20,42.8z"/>
	<path class="st4" d="M23.3,42.8c-0.5,0-0.8-0.4-0.8-0.8v-3.3c0-0.5,0.4-0.8,0.8-0.8c0.5,0,0.8,0.4,0.8,0.8V42
		C24.2,42.4,23.8,42.8,23.3,42.8z"/>
	<path class="st4" d="M26.7,42.8c-0.5,0-0.8-0.4-0.8-0.8v-3.3c0-0.5,0.4-0.8,0.8-0.8s0.8,0.4,0.8,0.8V42
		C27.5,42.4,27.1,42.8,26.7,42.8z"/>
</g>
</svg>
