<?xml version="1.0" encoding="utf-8"?>
<!-- Generator: Adobe Illustrator 22.0.0, SVG Export Plug-In . SVG Version: 6.00 Build 0)  -->
<svg version="1.1" id="Layer_1" xmlns="http://www.w3.org/2000/svg" xmlns:xlink="http://www.w3.org/1999/xlink" x="0px" y="0px"
	 viewBox="0 0 24 24" style="enable-background:new 0 0 24 24;" xml:space="preserve">
<style type="text/css">
	.st0{fill:#181C4A;}
</style>
<path class="st0" d="M10.3,8.6C10.4,9,9.7,9.8,9.9,10c0.3,0.3,1.1-0.5,1.4-0.4c0.4,0.1,0.4,1.2,0.7,1.2s0.4-1.1,0.7-1.2
	c0.4-0.1,1.2,0.6,1.4,0.4c0.3-0.3-0.5-1.1-0.4-1.4C13.9,8.3,15,8.3,15,7.9c0-0.4-1.1-0.4-1.2-0.7c-0.1-0.4,0.6-1.2,0.4-1.4
	c-0.3-0.3-1.1,0.5-1.4,0.4C12.4,6,12.4,4.9,12,4.9S11.6,6,11.3,6.1c-0.4,0.1-1.2-0.6-1.4-0.4c-0.3,0.3,0.5,1.1,0.4,1.4
	C10.1,7.5,9,7.5,9,7.9S10.1,8.3,10.3,8.6z M18.6,3.9V1.6C18.6,1.3,18.4,1,18,1H5.9C5.6,1.1,5.4,1.3,5.4,1.6v2.3
	c-1,0-2.9,0.3-2.9,2.4c0,1.6,1.2,4,2.9,4.3c0.3,3.2,2.6,5.4,4.8,5.4h0.3v2.7H8.9c-0.7,0-1.4,0.6-1.4,1.4v2.2c0,0.3,0.2,0.6,0.6,0.6
	H16c0.3,0,0.6-0.2,0.6-0.6v-2.2c0-0.7-0.6-1.4-1.4-1.4h-1.5v-2.7c2.9-0.1,4.8-2.7,5.1-5.4c1.8-0.2,2.9-2.7,2.9-4.3
	C21.5,4.2,19.6,3.9,18.6,3.9z M5.4,9.6c-1-0.4-1.8-2-1.8-3.2c0-0.7,0.4-1.2,1.8-1.3V9.6z M15.1,19.9c0.1,0,0.3,0.1,0.3,0.3v1.7H8.6
	v-1.7c0-0.1,0.1-0.3,0.3-0.3H15.1z M11.6,18.8v-2.7h0.9v2.7H11.6z M17.5,10c0,2.1-1.3,5-4.2,5h-3.2c-1.8,0-3.7-2.1-3.7-5V2.2h11.1
	V10z M18.6,9.6V5c1.5,0.1,1.8,0.6,1.8,1.4C20.4,7.7,19.6,9.3,18.6,9.6z"/>
</svg>
