<?xml version="1.0" encoding="utf-8"?>
<!-- Generator: Adobe Illustrator 22.0.0, SVG Export Plug-In . SVG Version: 6.00 Build 0)  -->
<svg version="1.1" id="Layer_1" xmlns="http://www.w3.org/2000/svg" xmlns:xlink="http://www.w3.org/1999/xlink" x="0px" y="0px"
	 viewBox="0 0 27 25" style="enable-background:new 0 0 27 25;" xml:space="preserve">
<style type="text/css">
	.st0{fill:#D43B35;}
	.st1{fill:#FFFFFF;}
</style>
<g>
	<path class="st0" d="M15.8,14.1l3.8-5.3c0.1-0.2,0.1-0.4,0-0.5c-0.1-0.1-0.4-0.2-0.5,0l-5.3,3.8c-0.3,0.3-0.6,0.6-0.6,1.1
		c0,0.4,0.1,0.8,0.4,1.1c0.3,0.3,0.6,0.4,1,0.4C15,14.7,15.5,14.5,15.8,14.1z"/>
	<path class="st1" d="M23.8,7.2C23.8,7.2,23.8,7.2,23.8,7.2C23.8,7.2,23.8,7.2,23.8,7.2c-0.4-0.8-0.9-1.4-1.5-2l0,0
		C22.2,5,22,4.8,21.8,4.6l0,0c-0.6-0.6-1.3-1-2-1.5c0,0,0,0,0,0c0,0,0,0,0,0c-1.3-0.7-2.7-1.2-4.2-1.4c0,0-1.5-0.1-2.5,0
		c-0.6,0.1-0.9,0.1-1.3,0.2c-0.2,0.1-0.4,0.3-0.3,0.5c0.1,0.2,0.3,0.4,0.5,0.3c0.4-0.1,0.8-0.2,1.2-0.2l0.4,0c0.1,0,0.3,0,0.4,0v0.8
		c0,0.2,0.2,0.4,0.4,0.4s0.4-0.2,0.4-0.4V2.5c1.5,0.1,3,0.5,4.3,1.2l-0.4,0.7c-0.1,0.2,0,0.4,0.1,0.6C18.8,4.9,18.9,5,19,5
		c0.1,0,0.3-0.1,0.4-0.2l0.4-0.7C21,4.9,22.1,6,22.9,7.2l-0.7,0.4C22,7.7,22,8,22.1,8.2c0.1,0.1,0.2,0.2,0.4,0.2
		c0.1,0,0.1,0,0.2-0.1l0.7-0.4c0.7,1.3,1.1,2.8,1.2,4.3h-0.8c-0.2,0-0.4,0.2-0.4,0.4c0,0.2,0.2,0.4,0.4,0.4h0.8
		c-0.1,1.6-0.5,3-1.2,4.3L22.6,17c-0.2-0.1-0.4,0-0.6,0.1c-0.1,0.2,0,0.4,0.1,0.6l0.7,0.4c-0.8,1.3-1.9,2.4-3.2,3.2l-0.4-0.7
		c-0.1-0.2-0.4-0.3-0.6-0.1c-0.2,0.1-0.3,0.4-0.1,0.6l0.4,0.7c-1.3,0.7-2.7,1.1-4.3,1.2v-0.8c0-0.2-0.2-0.4-0.4-0.4
		c-0.2,0-0.4,0.2-0.4,0.4v0.8c-0.7,0-1.3-0.1-2-0.3c-0.2-0.1-0.4,0.1-0.5,0.3c-0.1,0.2,0.1,0.4,0.3,0.5c0.8,0.2,1.6,0.3,2.5,0.3
		c0,0,0,0,0.1,0c0,0,0,0,0,0c0,0,0,0,0,0c2,0,3.8-0.5,5.4-1.5c0,0,0,0,0,0c0,0,0,0,0,0c1.7-1,3-2.3,4-4c0,0,0,0,0,0c0,0,0,0,0,0
		c0.9-1.6,1.5-3.5,1.5-5.5S24.8,8.8,23.8,7.2z"/>
	<path class="st1" d="M10.7,4.5h-2c-0.5,0-0.8,0.4-0.8,0.8c0,0.5,0.4,0.8,0.8,0.8h2c0.5,0,0.8-0.4,0.8-0.8
		C11.5,4.9,11.1,4.5,10.7,4.5z"/>
	<path class="st1" d="M10.7,7.4H6.6c-0.5,0-0.8,0.4-0.8,0.8S6.1,9,6.6,9h4.1c0.5,0,0.8-0.4,0.8-0.8S11.1,7.4,10.7,7.4z"/>
	<path class="st1" d="M10.7,10.2H4.5c-0.5,0-0.8,0.4-0.8,0.8c0,0.5,0.4,0.8,0.8,0.8h6.1c0.5,0,0.8-0.4,0.8-0.8
		C11.5,10.6,11.1,10.2,10.7,10.2z"/>
	<path class="st1" d="M10.7,13.1H2.9c-0.5,0-0.8,0.4-0.8,0.8s0.4,0.8,0.8,0.8h7.8c0.5,0,0.8-0.4,0.8-0.8S11.1,13.1,10.7,13.1z"/>
	<path class="st1" d="M10.7,16H5.4c-0.5,0-0.8,0.4-0.8,0.8c0,0.5,0.4,0.8,0.8,0.8h5.3c0.5,0,0.8-0.4,0.8-0.8
		C11.5,16.3,11.1,16,10.7,16z"/>
	<path class="st1" d="M10.7,18.8H7.8c-0.5,0-0.8,0.4-0.8,0.8s0.4,0.8,0.8,0.8h2.9c0.5,0,0.8-0.4,0.8-0.8S11.1,18.8,10.7,18.8z"/>
</g>
</svg>
