<?xml version="1.0" encoding="utf-8"?>
<!-- Generator: Adobe Illustrator 22.0.0, SVG Export Plug-In . SVG Version: 6.00 Build 0)  -->
<svg version="1.1" id="Layer_1" xmlns="http://www.w3.org/2000/svg" xmlns:xlink="http://www.w3.org/1999/xlink" x="0px" y="0px"
	 viewBox="0 0 50 50" style="enable-background:new 0 0 50 50;" xml:space="preserve">
<style type="text/css">
	.st0{fill:#F5FE00;}
	.st1{fill:#12142D;}
	.st2{clip-path:url(#SVGID_2_);}
	.st3{fill:#FFFFFF;}
	.st4{fill:#D43B35;}
</style>
<g>
	<path class="st0" d="M24.8,49.3c-13.5,0-24.5-11-24.5-24.5c0-13.5,11-24.5,24.5-24.5c13.5,0,24.5,11,24.5,24.5
		C49.3,38.3,38.3,49.3,24.8,49.3z M24.8,1.8c-12.7,0-23,10.3-23,23c0,12.7,10.3,23,23,23c12.7,0,23-10.3,23-23
		C47.8,12.1,37.4,1.8,24.8,1.8z"/>
</g>
<circle class="st1" cx="24.8" cy="24.8" r="22.3"/>
<g>
	<defs>
		<circle id="SVGID_1_" cx="24.8" cy="24.8" r="22.3"/>
	</defs>
	<clipPath id="SVGID_2_">
		<use xlink:href="#SVGID_1_"  style="overflow:visible;"/>
	</clipPath>
	<g class="st2">
		<g>
			<path class="st3" d="M13.2,13c0-0.3-0.2-0.6-0.4-0.8c-0.3-0.2-0.6-0.3-0.9-0.3l-3.7,0.4c-0.3,0-0.6,0.2-0.8,0.4
				C7.1,12.9,7,13.2,7,13.6l0.2,1.9l6.2-0.6L13.2,13z"/>
			<path class="st3" d="M16.2,46.7c0.1-0.1,0.2-0.3,0.2-0.5l-0.6-6.6c-2.8-3.5-3.3-8.4-1.2-12.4l-1.1-11.2l-6.2,0.6l2.8,29.7
				c0,0.3,0.3,0.6,0.6,0.6h5C15.9,46.9,16.1,46.9,16.2,46.7z"/>
			<path class="st3" d="M21.3,21.8c2-0.6,4.2-0.6,6.2,0l0-5.4h-6.2L21.3,21.8z"/>
			<path class="st3" d="M34.4,27.3c2.1,4,1.7,8.8-1.2,12.4l-0.6,6.6c0,0.2,0,0.4,0.2,0.5c0.1,0.1,0.3,0.2,0.5,0.2h5
				c0.3,0,0.6-0.2,0.6-0.6l2.8-29.7l-6.2-0.6L34.4,27.3z"/>
			<path class="st3" d="M40.9,12.2l-3.7-0.4c-0.3,0-0.7,0.1-0.9,0.3c-0.3,0.2-0.4,0.5-0.4,0.8l-0.2,1.9l6.2,0.6l0.2-1.9
				C42.1,12.9,41.6,12.3,40.9,12.2L40.9,12.2z"/>
			<path class="st3" d="M26.2,43.7c-1.6,0.3-3.2,0.2-4.8-0.3v2.9c0,0.3,0.3,0.6,0.6,0.6h5c0.3,0,0.6-0.3,0.6-0.6v-2.9
				c-0.4,0.1-0.8,0.2-1.3,0.3C26.3,43.7,26.2,43.7,26.2,43.7L26.2,43.7z"/>
			<path class="st3" d="M27.7,13.2c0-0.3-0.1-0.7-0.4-0.9c-0.2-0.2-0.5-0.4-0.9-0.4l-3.7,0h0c-0.7,0-1.2,0.6-1.2,1.2l0,1.9h6.2
				L27.7,13.2z"/>
		</g>
		<g>
			<path class="st4" d="M23.2,37.9c-3.7-3.7-5-9.1-3.5-14.1c-0.5,0.3-0.9,0.6-1.3,0.9c-0.1,0.3-0.2,0.6-0.2,1
				c-0.1,0.3-0.3,0.5-0.6,0.5c0,0-0.1,0-0.1,0c-0.1,0-0.2-0.1-0.3-0.2c-2.4,2.9-3,6.9-1.4,10.4c1.6,3.4,5,5.6,8.8,5.7
				c0-0.1,0-0.2,0.1-0.4c0.1-0.1,0.2-0.2,0.4-0.3c0.2,0,0.3,0,0.5,0.1c0.3,0.2,0.6,0.3,0.9,0.4c0.7-0.1,1.5-0.3,2.1-0.6
				C26.5,40.5,24.7,39.4,23.2,37.9z M16.9,31.1c-0.1-0.8-0.2-1.7-0.2-2.5c0-0.1,0-0.2,0-0.3c0-0.3,0.3-0.6,0.6-0.6
				c0.2,0,0.3,0.1,0.4,0.2c0.1,0.1,0.2,0.3,0.2,0.4v0.3c0,0.8,0.1,1.6,0.2,2.3c0.1,0.3-0.2,0.6-0.5,0.7c0,0-0.1,0-0.1,0
				C17.2,31.7,17,31.4,16.9,31.1z M19.6,36.7c-0.1,0.1-0.2,0.1-0.3,0.1c-0.2,0-0.4-0.1-0.5-0.3c-0.5-0.8-0.9-1.7-1.2-2.6
				c-0.1-0.3,0.1-0.7,0.4-0.8c0.3-0.1,0.7,0.1,0.8,0.4c0.3,0.8,0.7,1.6,1.1,2.4c0.1,0.1,0.1,0.3,0.1,0.5
				C19.9,36.5,19.8,36.7,19.6,36.7L19.6,36.7z M23.3,40.8c-0.2,0.3-0.6,0.3-0.9,0.1c-0.4-0.3-0.8-0.7-1.2-1.1
				c-0.3-0.3-0.6-0.6-0.9-1c-0.2-0.3-0.2-0.6,0.1-0.9c0.3-0.2,0.6-0.2,0.9,0.1c0.3,0.3,0.5,0.6,0.8,0.9c0.3,0.3,0.7,0.7,1.1,1
				C23.5,40.1,23.6,40.5,23.3,40.8L23.3,40.8z"/>
			<path class="st4" d="M31.5,38.1c0.3,0.1,0.5,0.1,0.8,0.1c1.9-2.4,2.5-5.6,1.7-8.5c-0.8-3-2.9-5.4-5.8-6.5h0c-0.1,0-0.2,0-0.3-0.1
				c-1-0.4-2.1-0.6-3.3-0.6c-0.2,0-0.5,0-0.7,0c-0.1,0.2-0.2,0.5-0.3,0.7c-0.1,0.2-0.3,0.3-0.5,0.4c-0.2,0-0.4-0.1-0.6-0.2
				c-0.1-0.2-0.2-0.4-0.1-0.6c0,0,0-0.1,0-0.1c-0.4,0.1-0.8,0.2-1.1,0.3c-1.4,3.4-1.3,7.3,0.4,10.6c1.7,3.3,4.7,5.8,8.3,6.7
				c0.5-0.3,0.9-0.7,1.3-1.1c0,0-0.1,0-0.1,0c-0.2,0-0.4-0.2-0.5-0.4c-0.1-0.2,0-0.4,0.1-0.6C31,38.1,31.2,38.1,31.5,38.1L31.5,38.1
				z M21.6,27.5L21.6,27.5c0-0.8,0.1-1.6,0.2-2.3c0.1-0.3,0.4-0.5,0.7-0.5S23,25,23,25.3c-0.1,0.7-0.2,1.4-0.2,2.1
				c0,0.3-0.3,0.6-0.6,0.6h0c-0.2,0-0.3-0.1-0.4-0.2S21.6,27.6,21.6,27.5z M23.3,32.4c-0.3,0.1-0.7,0-0.8-0.3
				c-0.3-0.7-0.5-1.5-0.7-2.3c-0.1-0.3,0.1-0.6,0.5-0.7c0.3-0.1,0.6,0.1,0.7,0.5c0.1,0.7,0.3,1.4,0.6,2
				C23.7,31.9,23.6,32.3,23.3,32.4z M25.9,36c-0.2,0.2-0.6,0.2-0.9,0c-0.6-0.6-1.1-1.2-1.5-1.8c-0.1-0.2-0.2-0.4-0.1-0.6
				c0.1-0.2,0.3-0.3,0.5-0.3c0.2,0,0.4,0.1,0.6,0.3c0.4,0.6,0.8,1.1,1.3,1.6C26.2,35.3,26.2,35.7,25.9,36z M29.8,38.3
				c-0.1,0.1-0.2,0.3-0.3,0.3c-0.1,0.1-0.3,0.1-0.5,0c-0.7-0.3-1.4-0.7-2.1-1.1c-0.2-0.2-0.3-0.6-0.1-0.8c0.2-0.3,0.5-0.3,0.8-0.2
				c0.6,0.4,1.2,0.7,1.9,1C29.7,37.6,29.9,38,29.8,38.3L29.8,38.3z"/>
		</g>
	</g>
</g>
</svg>
