<?xml version="1.0" encoding="utf-8"?>
<!-- Generator: Adobe Illustrator 22.0.0, SVG Export Plug-In . SVG Version: 6.00 Build 0)  -->
<svg version="1.1" id="Layer_1" xmlns="http://www.w3.org/2000/svg" xmlns:xlink="http://www.w3.org/1999/xlink" x="0px" y="0px" width="45px" height="45px"
	 viewBox="0 0 45.8 36.7" style="enable-background:new 0 0 45.8 36.7;" xml:space="preserve">
<style type="text/css">
	.st0{fill:#FFFFFF;}
</style>
<g>
	<path class="st0" d="M24.4,28.1h-3.7v-9.9h-2.5v-3.4h2.5v-2c0-2.8,0.7-4.4,4-4.4h2.7v3.3h-1.7c-1.3,0-1.4,0.5-1.4,1.4v1.7h3.1
		l-0.4,3.4h-2.7L24.4,28.1z"/>
</g>
<g>
	<path class="st0" d="M11.7,30.6C11.7,30.6,11.7,30.6,11.7,30.6c-3.3-3.1-5.3-7.5-5.3-12.3c0-9.4,7.6-17,17-17
		c2.7,0,5.2,0.6,7.4,1.7c-0.1-0.4,0.1-0.8,0.5-0.9C29,1,26.3,0.3,23.4,0.3c-9.9,0-18,8.1-18,18c0,5.1,2.2,9.7,5.6,13
		C11.1,31,11.3,30.6,11.7,30.6z"/>
	<path class="st0" d="M34.7,4.3c0,0.4-0.2,0.7-0.7,0.7c3.9,3.1,6.4,7.9,6.4,13.2c0,9.4-7.6,17-17,17c-3.2,0-6.2-0.9-8.8-2.5
		c0,0.4-0.2,0.7-0.7,0.8c2.8,1.7,6,2.8,9.5,2.8c9.9,0,18-8.1,18-18C41.4,12.6,38.8,7.6,34.7,4.3z"/>
</g>
</svg>
