<?xml version="1.0" encoding="utf-8"?>
<!-- Generator: Adobe Illustrator 22.0.0, SVG Export Plug-In . SVG Version: 6.00 Build 0)  -->
<svg version="1.1" id="Layer_1" xmlns="http://www.w3.org/2000/svg" xmlns:xlink="http://www.w3.org/1999/xlink" x="0px" y="0px"
	 viewBox="0 0 30 30" style="enable-background:new 0 0 30 30;" xml:space="preserve">
<style type="text/css">
	.st0{fill:#3B589B;}
</style>
<path class="st0" d="M0.4,15C0.4,7.2,6.7,0.4,15,0.4c8.1,0,14.6,6.5,14.6,14.6c0,8.3-6.8,14.6-14.6,14.6C6.9,29.6,0.4,23,0.4,15z
	 M16.2,18.9c0-1.2,0-2.4,0-3.6c0,0,0,0,0,0c0-0.3,0.1-0.4,0.4-0.4c0.5,0,1,0,1.4,0c0.3,0,0.4-0.1,0.4-0.4c0-0.6,0.1-1.3,0.2-1.9
	c0-0.3-0.1-0.3-0.3-0.3c-0.6,0-1.2,0-1.8,0c-0.2,0-0.3-0.1-0.3-0.3c0-0.4,0-0.9,0-1.3c0-0.6,0.3-0.9,0.9-0.9c0.4,0,0.8,0,1.3,0
	c0.2,0,0.3-0.1,0.3-0.3c0-0.7,0-1.4,0-2.1c0-0.2-0.1-0.3-0.3-0.3c-0.8,0-1.6,0-2.5,0.1c-1.6,0.1-2.7,1.1-2.8,2.7
	c0,0.4,0,0.8-0.1,1.2c0,0.4,0.2,0.9-0.1,1.1c-0.2,0.2-0.7,0.1-1.1,0.1c-0.1,0-0.1,0-0.2,0c-0.2,0-0.3,0.1-0.3,0.3c0,0.7,0,1.4,0,2.1
	c0,0.2,0.1,0.3,0.3,0.3c0.3,0,0.6,0,0.9,0c0.5,0,0.5,0,0.5,0.5c0,2.3,0,4.7,0,7c0,0.4,0,0.4,0.4,0.4c0.8,0,1.5,0,2.3,0
	c0.5,0,0.5,0,0.5-0.4C16.2,21.3,16.2,20.1,16.2,18.9z"/>
</svg>
