<?xml version="1.0" encoding="utf-8"?>
<!-- Generator: Adobe Illustrator 22.0.0, SVG Export Plug-In . SVG Version: 6.00 Build 0)  -->
<svg version="1.1" id="Layer_1" xmlns="http://www.w3.org/2000/svg" xmlns:xlink="http://www.w3.org/1999/xlink" x="0px" y="0px"
	 viewBox="0 0 50 50" style="enable-background:new 0 0 50 50;" xml:space="preserve">
<style type="text/css">
	.st0{fill:#F5FE00;}
	.st1{fill:#12142D;}
	.st2{clip-path:url(#SVGID_2_);}
	.st3{fill:#FFFFFF;}
	.st4{fill:#D43B35;}
</style>
<g>
	<path class="st0" d="M24.8,49.3c-13.5,0-24.5-11-24.5-24.5c0-13.5,11-24.5,24.5-24.5c13.5,0,24.5,11,24.5,24.5
		C49.3,38.3,38.3,49.3,24.8,49.3z M24.8,1.8c-12.7,0-23,10.3-23,23c0,12.7,10.3,23,23,23c12.7,0,23-10.3,23-23
		C47.8,12.1,37.4,1.8,24.8,1.8z"/>
</g>
<circle class="st1" cx="24.8" cy="24.8" r="22.3"/>
<g>
	<defs>
		<circle id="SVGID_1_" cx="24.8" cy="24.8" r="22.3"/>
	</defs>
	<clipPath id="SVGID_2_">
		<use xlink:href="#SVGID_1_"  style="overflow:visible;"/>
	</clipPath>
	<g class="st2">
		<g>
			<path class="st3" d="M13.5,41c-0.3,0.3-0.3,0.8,0,1c0.3,0.3,0.7,0.3,1,0l0.5-0.5l-1-1L13.5,41z"/>
			<path class="st3" d="M9.8,37.4c-0.3,0.3-0.3,0.8,0,1c0.3,0.3,0.7,0.3,1,0l0.5-0.5l-1-1L9.8,37.4z"/>
			<path class="st3" d="M14.8,32l-1-1l-2.1,1l1,1L14.8,32z"/>
			<path class="st3" d="M1,25.5L16.6,41c0.3,0.3,0.6,0.4,1,0.4c0.4,0,0.8-0.2,1-0.4L1,23.4c-0.3,0.3-0.4,0.6-0.4,1
				C0.6,24.8,0.7,25.2,1,25.5z"/>
			<path class="st3" d="M0,27.5c-0.3,0.3-0.3,0.8,0,1c0.3,0.3,0.7,0.3,1,0l0.5-0.5l-1-1L0,27.5z"/>
			<path class="st3" d="M3.6,31.2c-0.3,0.3-0.3,0.8,0,1c0.3,0.3,0.7,0.3,1,0l0.5-0.5l-1-1L3.6,31.2z"/>
			<path class="st3" d="M9.4,29.7l1,1l2.9-1.3l-1-1L9.4,29.7z"/>
			<path class="st3" d="M20.3,38.3c-1.9-3.7-3.9-7.6-4.8-12c-0.1-0.3-0.1-0.6-0.2-0.9c-0.3-1.4-0.5-2.7-1.4-3.6l-0.1-0.1
				c-1,0.3-2.4-0.3-3.5-1.4c-1.1-1.1-1.7-2.4-1.4-3.4c0,0,0,0-0.1-0.1c-0.6-0.2-1.2,0-1.6,0.4L2,22.4l4,4l4.1-1.8
				c0.6-0.3,1.2-0.1,1.6,0.3l1,1c0.3,0.3,0.5,0.8,0.4,1.3c0,0.1,0,0.1,0,0.2c0.1,0,0.2,0.1,0.2,0.2l1,1c0.3,0.3,0.5,0.8,0.4,1.3
				c0,0.1,0,0.1,0,0.2c0.1,0,0.2,0.1,0.2,0.2l1,1c0.3,0.3,0.5,0.8,0.4,1.3c-0.1,0.5-0.4,0.9-0.8,1.1l-1.6,0.7l6.1,6.1
				c0.6-0.3,0.8-1.1,0.5-1.7L20.3,38.3z"/>
			<path class="st3" d="M7.1,27.4l1,1l3.6-1.6l-1-1L7.1,27.4z"/>
			<path class="st3" d="M10.3,17.2c-0.1,0.3,0.2,1.2,1.1,2c0.9,0.9,1.7,1.1,2,1.1c0.3-0.1,0.6-0.1,0.9,0L29.1,1.2H17.8l-7.6,15.1
				C10.4,16.6,10.4,16.9,10.3,17.2z"/>
			<path class="st3" d="M32.9,37.4c-2.7,3.4-9,4.1-9,4.1c-0.4,0-0.7,0.4-0.7,0.8c0,0.4,0.3,0.7,0.7,0.7c0,0,0.1,0,0.1,0
				c0.3,0,6.9-0.8,10-4.7c0.2-0.3,0.2-0.8-0.1-1C33.6,37,33.2,37.1,32.9,37.4L32.9,37.4z"/>
			<path class="st3" d="M23.2,39.5c0,0.2,0.1,0.4,0.3,0.5c0.2,0.1,0.4,0.2,0.5,0.1c0.5-0.1,4.7-0.8,6.3-2.4c0.3-0.3,0.3-0.7,0-1
				c-0.3-0.3-0.7-0.3-1,0c-1.1,1.1-4.3,1.8-5.5,2C23.4,38.7,23.2,39.1,23.2,39.5z"/>
		</g>
		<g>
			<path class="st4" d="M34.9,15.5l0.8-1l-0.8-1c-0.8-0.1-1.6-0.1-2.3,0l-0.8,1l0.8,1H34.9z"/>
			<path class="st4" d="M43,23l1.2,0.5l0.6-0.9c-0.2-0.8-0.4-1.6-0.7-2.4L43,19.8l-0.7,1.1L43,23z"/>
			<path class="st4" d="M23.2,23.5l1.2-0.5l0.7-2.1l-0.7-1.1l-1.1,0.4c-0.3,0.8-0.6,1.6-0.7,2.4L23.2,23.5z"/>
			<path class="st4" d="M28.9,34.9l1.2-0.5l-0.3-1.3l-2-1l-1.2,0.5l0.2,1.1c0.2,0.2,0.4,0.3,0.6,0.4L28.9,34.9z"/>
			<path class="st4" d="M32.7,23l-1,1.8l1,1.8h2.1l1-1.8l-1-1.8H32.7z"/>
			<path class="st4" d="M44.4,25.7c-0.2,0-0.4,0-0.5-0.1L42,24.9c-0.4-0.2-0.8-0.5-0.9-1l-0.9-2.6c-0.1-0.4-0.1-0.9,0.2-1.3l1.1-1.6
				c0.2-0.3,0.6-0.6,1-0.6c-1.2-1.5-2.9-2.7-4.7-3.5c0.1,0.4,0,0.9-0.3,1.2L36.3,17c-0.3,0.4-0.7,0.6-1.2,0.6h-2.8
				c-0.5,0-0.9-0.2-1.2-0.6l-1.2-1.5c-0.3-0.3-0.4-0.8-0.3-1.2c-1.8,0.7-3.5,1.9-4.7,3.5c0.4,0.1,0.8,0.3,1,0.6L27,20
				c0.3,0.4,0.3,0.9,0.2,1.3l-0.9,2.6c-0.1,0.4-0.5,0.8-0.9,1l-1.8,0.7c-0.2,0.1-0.4,0.1-0.5,0.1c-0.2,0-0.4,0-0.6-0.1
				c0.2,2.2,0.9,4.3,2.3,6c0.2-0.3,0.4-0.5,0.7-0.7l1.8-0.8c0.4-0.2,0.9-0.2,1.3,0l2.4,1.3c0.4,0.2,0.7,0.6,0.8,1.1l0.4,1.9
				c0.1,0.6-0.1,1.2-0.6,1.5c1.4,0.3,2.8,0.3,4.1,0c-0.5-0.4-0.7-0.9-0.6-1.5l0.4-1.9c0.1-0.5,0.4-0.9,0.8-1.1l2.4-1.3
				c0.4-0.2,0.9-0.2,1.3,0l1.8,0.8c0.3,0.1,0.6,0.4,0.7,0.7c1.3-1.7,2.1-3.8,2.3-6C44.8,25.6,44.6,25.7,44.4,25.7z M37.7,25.5
				l-1.3,2.3c-0.3,0.5-0.8,0.8-1.3,0.8h-2.7c-0.6,0-1.1-0.3-1.3-0.8l-1.3-2.3c-0.3-0.5-0.3-1.1,0-1.5l1.3-2.3
				c0.3-0.5,0.8-0.8,1.3-0.8h2.7c0.6,0,1.1,0.3,1.3,0.8l1.3,2.3C38,24.5,38,25,37.7,25.5L37.7,25.5z"/>
			<path class="st4" d="M37.6,33.1l-0.3,1.3l1.2,0.5l1.4-0.7c0.2-0.1,0.4-0.3,0.6-0.4l0.2-1.1l-1.2-0.5L37.6,33.1z"/>
		</g>
	</g>
</g>
</svg>
