<?xml version="1.0" encoding="utf-8"?>
<!-- Generator: Adobe Illustrator 22.0.0, SVG Export Plug-In . SVG Version: 6.00 Build 0)  -->
<svg version="1.1" id="Layer_1" xmlns="http://www.w3.org/2000/svg" xmlns:xlink="http://www.w3.org/1999/xlink" x="0px" y="0px"
	 viewBox="0 0 30 30" style="enable-background:new 0 0 30 30;" xml:space="preserve">
<style type="text/css">
	.st0{fill:#F04C39;}
</style>
<path class="st0" d="M17.6,14.6c1.1,0,2.2,0,3.3,0c0.2,0,0.3,0.1,0.3,0.3c0,1,0,1.9-0.2,2.8c-0.8,3.2-3.3,5.5-6.6,6
	c-4.2,0.6-8.1-2.3-8.7-6.4c-0.4-2.6,0.3-4.9,2.1-6.7c1.3-1.3,2.9-2.1,4.7-2.3c2.3-0.2,4.4,0.4,6.1,2c0.4,0.3,0.4,0.6,0,1
	c-0.4,0.4-0.8,0.8-1.2,1.2c-0.3,0.3-0.6,0.3-0.9,0c-0.9-0.8-1.9-1.2-3.1-1.2C11,11.2,9,13,8.6,15.3c-0.3,2.4,1,4.5,3.2,5.3
	c2.4,0.8,5-0.4,5.9-2.7c0.1-0.2,0.1-0.3-0.2-0.3c-1.1,0-2.2,0-3.2,0c-0.6,0-0.8-0.2-0.8-0.8c0-0.5,0-1,0-1.5c0-0.6,0.2-0.8,0.8-0.8
	C15.4,14.6,16.5,14.6,17.6,14.6z"/>
<path class="st0" d="M25.5,13.8c-0.2,0-0.5,0-0.7,0c-0.2,0-0.3,0.1-0.3,0.3c0,0.5,0,1,0,1.4c0,0.4-0.2,0.6-0.6,0.6
	c-0.5,0-0.9,0-1.4,0c-0.4,0-0.6-0.2-0.6-0.6c0-0.5,0-1,0-1.4c0-0.2-0.1-0.3-0.3-0.3c-0.5,0-1,0-1.5,0c-0.4,0-0.6-0.2-0.6-0.6
	c0-0.5,0-0.9,0-1.4c0-0.4,0.2-0.6,0.6-0.6c0.5,0,0.9,0,1.4,0c0.3,0,0.3,0,0.3-0.3c0-0.5,0-0.9,0-1.4c0-0.4,0.2-0.6,0.6-0.6
	c0.4,0,0.9,0,1.3,0c0.4,0,0.6,0.2,0.6,0.6c0,0.5,0,0.9,0,1.4c0,0.2,0.1,0.3,0.3,0.3c0.5,0,0.9,0,1.4,0c0.5,0,0.7,0.2,0.7,0.7
	c0,0.4,0,0.8,0,1.3c0,0.4-0.2,0.6-0.6,0.6c-0.1,0-0.2,0-0.4,0C25.7,13.8,25.6,13.8,25.5,13.8z"/>
</svg>
