<?xml version="1.0" encoding="utf-8"?>
<!-- Generator: Adobe Illustrator 22.0.0, SVG Export Plug-In . SVG Version: 6.00 Build 0)  -->
<svg version="1.1" id="Layer_1" xmlns="http://www.w3.org/2000/svg" xmlns:xlink="http://www.w3.org/1999/xlink" x="0px" y="0px" width="45px" height="45px"
	 viewBox="0 0 45.8 36.7" style="enable-background:new 0 0 45.8 36.7;" xml:space="preserve">
<style type="text/css">
	.st0{fill:#FFFFFF;}
</style>
<g>
	<path class="st0" d="M11.7,30.6C11.7,30.6,11.7,30.6,11.7,30.6c-3.3-3.1-5.3-7.5-5.3-12.3c0-9.4,7.6-17,17-17
		c2.7,0,5.2,0.6,7.4,1.7c-0.1-0.4,0.1-0.8,0.5-0.9C29,1,26.3,0.3,23.4,0.3c-9.9,0-18,8.1-18,18c0,5.1,2.2,9.7,5.6,13
		C11.1,31,11.3,30.6,11.7,30.6z"/>
	<path class="st0" d="M34.7,4.3c0,0.4-0.2,0.7-0.7,0.7c3.9,3.1,6.4,7.9,6.4,13.2c0,9.4-7.6,17-17,17c-3.2,0-6.2-0.9-8.8-2.5
		c0,0.4-0.2,0.7-0.7,0.8c2.8,1.7,6,2.8,9.5,2.8c9.9,0,18-8.1,18-18C41.4,12.6,38.8,7.6,34.7,4.3z"/>
</g>
<g>
	<path class="st0" d="M20.7,19.8h3.4c-0.6,1.7-2.2,2.9-4.1,2.9c-2.3,0-4.2-1.8-4.3-4.2C15.6,16,17.6,14,20.1,14
		c1.1,0,2.1,0.4,2.9,1.1c0.2,0.1,0.4,0.1,0.6,0l1.2-1.2c0.2-0.2,0.2-0.5,0-0.7c-1.2-1.1-2.9-1.9-4.7-1.9c-3.8-0.1-7.1,3.1-7.1,7
		c0,3.9,3.1,7.1,7,7.1c3.7,0,6.8-2.9,7-6.6c0,0,0-1.6,0-1.6h-6.3c-0.2,0-0.4,0.2-0.4,0.4v1.7C20.3,19.6,20.5,19.8,20.7,19.8z"/>
	<path class="st0" d="M32.8,17.3v-1.7c0-0.2-0.2-0.4-0.4-0.4h-1.4c-0.2,0-0.4,0.2-0.4,0.4v1.7H29c-0.2,0-0.4,0.2-0.4,0.4v1.4
		c0,0.2,0.2,0.4,0.4,0.4h1.7v1.7c0,0.2,0.2,0.4,0.4,0.4h1.4c0.2,0,0.4-0.2,0.4-0.4v-1.7h1.7c0.2,0,0.4-0.2,0.4-0.4v-1.4
		c0-0.2-0.2-0.4-0.4-0.4H32.8L32.8,17.3z"/>
</g>
</svg>
