<?xml version="1.0" encoding="utf-8"?>
<!-- Generator: Adobe Illustrator 22.0.0, SVG Export Plug-In . SVG Version: 6.00 Build 0)  -->
<svg version="1.1" id="Layer_1" xmlns="http://www.w3.org/2000/svg" xmlns:xlink="http://www.w3.org/1999/xlink" x="0px" y="0px"
	 viewBox="0 0 26.2 20.8" style="enable-background:new 0 0 26.2 20.8;" xml:space="preserve">
<style type="text/css">
	.st0{fill:#FFFFFF;}
</style>
<title>HIDE</title>
<path class="st0" d="M16.9,2.9l-2.4,2.3C11.6,4.5,8.7,6.2,7.9,9c0,0,0,0,0,0c-0.2,0.9-0.2,1.9,0,2.8l-3.7,3.7
	C2.5,14.1,1,12.4,0,10.4C3.2,4.2,10.2,1.1,16.9,2.9L16.9,2.9z M21.9,5.4c1.8,1.3,3.2,3.1,4.3,5C23,16.5,16,19.7,9.3,17.9l2.4-2.4
	c2.9,0.8,5.8-0.9,6.6-3.8c0.2-0.9,0.2-1.9,0-2.8L21.9,5.4L21.9,5.4z M21.6,0l1.9,1.9L4.6,20.8l-1.9-1.9L21.6,0z"/>
</svg>
