<?xml version="1.0" encoding="utf-8"?>
<!-- Generator: Adobe Illustrator 22.0.0, SVG Export Plug-In . SVG Version: 6.00 Build 0)  -->
<svg version="1.1" id="Layer_1" xmlns="http://www.w3.org/2000/svg" xmlns:xlink="http://www.w3.org/1999/xlink" x="0px" y="0px"
	 viewBox="0 0 24 24" style="enable-background:new 0 0 24 24;" xml:space="preserve">
<style type="text/css">
	.st0{fill:#181C4A;}
	.st1{fill:#D43B35;}
</style>
<g>
	<path class="st0" d="M22.1,15.7V2.9c0.5,0,0.9-0.4,0.9-0.9S22.6,1,22.1,1H1.9C1.4,1,1,1.4,1,1.9s0.4,0.9,0.9,0.9v12.8
		c-0.5,0-0.9,0.4-0.9,0.9s0.4,0.9,0.9,0.9h7.4l-1.8,4.2c-0.2,0.5,0,1,0.5,1.2s1,0,1.2-0.5l2.1-4.9h1.4l2.1,4.9
		c0.2,0.5,0.7,0.6,1.2,0.5c0.5-0.2,0.6-0.7,0.5-1.2l-1.8-4.2h7.5c0.5,0,0.9-0.4,0.9-0.9S22.6,15.7,22.1,15.7z M20.3,15.7H3.8V2.9
		h16.5V15.7z"/>
	<g>
		<polygon class="st1" points="10.2,5.6 10.2,12.9 13.8,9.3 		"/>
	</g>
</g>
</svg>
