<?xml version="1.0" encoding="utf-8"?>
<!-- Generator: Adobe Illustrator 22.0.0, SVG Export Plug-In . SVG Version: 6.00 Build 0)  -->
<svg version="1.1" id="Layer_1" xmlns="http://www.w3.org/2000/svg" xmlns:xlink="http://www.w3.org/1999/xlink" x="0px" y="0px"
	 viewBox="0 0 18 17.1" style="enable-background:new 0 0 18 17.1;" xml:space="preserve">
<style type="text/css">
	.st0{fill:#3C92CA;}
	.st1{fill:#FFFFFF;}
</style>
<g>
	<g>
		<polyline id="XMLID_606_" class="st0" points="9.4,9.8 9.7,15.4 8.9,16.1 8.2,15.4 8.4,9.8 		"/>
		<path class="st1" d="M3.2,13.6c0.2,0,0.3-0.1,0.3-0.3v-1.6c0-0.3,0.1-0.5,0.3-0.7c1.4-1.2,3-2,3.3-2.1c0.1-0.1,0.2-0.2,0.2-0.4
			V6.3c0-0.1,0-0.2-0.1-0.2C7,5.9,6.8,5.6,6.8,5.4V3c0-1,0.8-1.8,1.8-1.8h0.5C10.2,1.2,11,2,11,3v2.4c0,0.3-0.1,0.5-0.3,0.6
			c-0.1,0.1-0.1,0.1-0.1,0.2v2.3c0,0.2,0.1,0.3,0.2,0.4c0.3,0.1,1.9,0.9,3.3,2.1c0.2,0.2,0.3,0.4,0.3,0.7v1.6c0,0.2,0.1,0.3,0.3,0.3
			s0.3-0.1,0.3-0.3v-1.6c0-0.4-0.2-0.8-0.5-1.1c-1.4-1.1-2.8-1.9-3.3-2.1v-2c0.3-0.3,0.5-0.6,0.5-1V3c0-1.3-1.1-2.4-2.4-2.4H8.7
			C7.3,0.6,6.3,1.7,6.3,3v2.4c0,0.4,0.2,0.8,0.5,1v2c-0.5,0.2-2,1-3.3,2.1c-0.3,0.3-0.5,0.7-0.5,1.1v1.6C2.9,13.5,3,13.6,3.2,13.6z"
			/>
		<path class="st1" d="M9.7,8.9c-0.2,0-0.3,0.1-0.3,0.3c0,0.1-0.1,0.3-0.2,0.4c0,0,0,0-0.1,0C9.1,9.7,9,9.7,8.9,9.7
			c-0.3,0-0.5-0.2-0.5-0.5c0-0.2-0.1-0.3-0.3-0.3S7.9,9.1,7.9,9.2c0,0.3,0.1,0.5,0.2,0.7l-0.2,5.5c0,0.1,0,0.2,0.1,0.2l0.8,0.7
			c0.1,0.1,0.1,0.1,0.2,0.1c0.1,0,0.1,0,0.2-0.1l0.8-0.7c0.1-0.1,0.1-0.1,0.1-0.2L9.7,10C9.9,9.8,10,9.5,10,9.2
			C10,9.1,9.9,8.9,9.7,8.9z M8.9,15.7l-0.5-0.4l0.2-5c0.1,0,0.2,0,0.3,0c0.1,0,0.1,0,0.2,0l0.2,5L8.9,15.7z"/>
	</g>
</g>
</svg>
