<?xml version="1.0" encoding="utf-8"?>
<!-- Generator: Adobe Illustrator 22.0.0, SVG Export Plug-In . SVG Version: 6.00 Build 0)  -->
<svg version="1.1" id="Layer_1" xmlns="http://www.w3.org/2000/svg" xmlns:xlink="http://www.w3.org/1999/xlink" x="0px" y="0px" width="46px" height="40px;"
	 viewBox="0 0 46 40" style="enable-background:new 0 0 46 40;" xml:space="preserve">
<style type="text/css">
	.st0{fill:none;stroke:#FFFFFF;stroke-linecap:round;stroke-linejoin:round;stroke-miterlimit:10;}
	.st1{fill:#FFFFFF;}
</style>
<line class="st0" x1="9.6" y1="14.9" x2="18.9" y2="14.9"/>
<line class="st0" x1="11.2" y1="20" x2="20.6" y2="20"/>
<line class="st0" x1="12.9" y1="24.5" x2="22.3" y2="24.5"/>
<path class="st0" d="M16.9,27.9v7.5c0,2.7,2.4,3.2,2.4,3.2h14.2c2.3,0,2.5-2.5,2.5-2.5V8.5c0-2.8-2.4-3-2.4-3h-14
	c-2.6,0-2.7,2.6-2.7,2.6v3"/>
<line class="st0" x1="17.5" y1="11.1" x2="36.1" y2="11.1"/>
<line class="st0" x1="16.9" y1="33.2" x2="36.1" y2="33.2"/>
<path class="st1" d="M28.1,8.9h-3.7c-0.3,0-0.6-0.3-0.6-0.6l0,0c0-0.3,0.3-0.6,0.6-0.6h3.7c0.3,0,0.6,0.3,0.6,0.6l0,0
	C28.6,8.6,28.4,8.9,28.1,8.9z"/>
<circle class="st1" cx="26.3" cy="36" r="1.1"/>
</svg>
