<?xml version="1.0" encoding="utf-8"?>
<!-- Generator: Adobe Illustrator 22.0.0, SVG Export Plug-In . SVG Version: 6.00 Build 0)  -->
<svg version="1.1" id="Layer_1" xmlns="http://www.w3.org/2000/svg" xmlns:xlink="http://www.w3.org/1999/xlink" x="0px" y="0px"
	 viewBox="0 0 50 50" style="enable-background:new 0 0 50 50;" xml:space="preserve">
<style type="text/css">
	.st0{fill:#475D6D;}
	.st1{fill:#2C3F4F;}
	.st2{fill:#F9DC6A;}
	.st3{fill:#E5AC51;}
	.st4{fill:#2BB4F3;}
	.st5{fill:#1687C4;}
	.st6{fill:#F2A077;}
	.st7{fill:#FFCCAA;}
	.st8{fill:#FF5A59;}
	.st9{fill:#CE3A4C;}
</style>
<path class="st0" d="M34.7,4h4.6c1.1,0,2.2,0.7,2.6,1.7l0.3,0.7h1.4c2.4,0,4.3,1.9,4.3,4.3v15.7c0,1.7-1.4,3-3,3H29.6
	c-1.7,0-3-1.4-3-3V12.2C26.5,7.7,30.2,4,34.7,4z"/>
<path class="st1" d="M43.7,6.4h-1.4L42,5.7C41.5,4.7,40.5,4,39.4,4H37c1.1,0,2.2,0.7,2.6,1.7l0.3,0.7h1.4c2.4,0,4.3,1.9,4.3,4.3
	v15.7c0,1.7-1.4,3-3,3h2.4c1.7,0,3-1.4,3-3V10.7C48,8.3,46.1,6.4,43.7,6.4z"/>
<path class="st2" d="M20.4,6.4l-8.8-2.1C10.7,4.1,9.7,4.4,9,5.1L6.5,7.6H5.5c-1.5,0-2.8,1.2-2.8,2.8c0,0-0.1,3.4,0,4.5
	C2.9,16.2,4,20.1,4,20.1h18.7l3.5-13.9C26.4,5.5,25.6,5,25,5.4l0,0C23.7,6.4,22,6.8,20.4,6.4z"/>
<path class="st3" d="M25,5.4L25,5.4c-0.4,0.3-0.8,0.5-1.2,0.7c0,0,0,0,0,0.1l-3.5,13.9h2.4l3.5-13.9C26.4,5.5,25.6,5,25,5.4z"/>
<path class="st4" d="M47.4,36.8v9.3H30.5v-8.7H5.3v-5.6h37.1C45.2,31.9,47.4,34.1,47.4,36.8z"/>
<g>
	<path class="st5" d="M42.4,31.9h-2.1c2.8,0,5,2.2,5,5v9.3h2.1v-9.3C47.4,34.1,45.2,31.9,42.4,31.9z"/>
	<path class="st5" d="M26.2,37.5v-0.6c0-2.8-2.2-5-5-5H11c-2.8,0-5,2.2-5,5v0.6H26.2z"/>
</g>
<path class="st6" d="M34.3,26.9v6c0,1.7,3,3.3,3,3.3s3-1.7,3-3.3v-6H34.3z"/>
<path class="st7" d="M47.7,19.6v0.9c0,1-0.8,1.9-1.9,1.9h-0.6c-0.3,4.9-4.8,8.3-9.2,7.5h0c-3.7-0.6-6.6-3.7-6.8-7.5h-0.6
	c-1,0-1.9-0.8-1.9-1.9v-0.9c0-1,0.8-1.9,1.9-1.9h0.6v-4.1c0-0.1,0-0.2,0-0.3c1.1,0.2,2.2,0.3,3.4,0.3c3.5,0,6.8-1,9.6-2.8
	c0.6-0.4,1.2-0.8,1.7-1.3c0.8,1.1,1.3,2.5,1.3,4.1v4.1h0.6C46.9,17.8,47.7,18.6,47.7,19.6z"/>
<path class="st6" d="M45.9,17.8h-0.6v-1.7h0c0-2.7,0-2.5,0-2.6c0-1.5-0.5-2.8-1.3-3.9c-0.6,0.5-1.1,0.9-1.7,1.3
	c0.4,0.9,0.6,1.8,0.6,2.8v4.1l0,4.6c-0.1,2.1-1,4-2.5,5.4c-1.2,1.1-2.6,1.9-4.3,2.1c4,0.7,8.2-2.1,9-6.2l0,0c0,0,0,0,0,0
	c0-0.2,0.1-0.4,0.1-0.6c0,0,0,0,0,0c0-0.1,0-0.2,0-0.3c0,0,0,0,0-0.1c0-0.1,0-0.2,0-0.3h0h0.6c1,0,1.9-0.8,1.9-1.9v-0.9
	C47.7,18.6,46.9,17.8,45.9,17.8z"/>
<g>
	<path class="st0" d="M37.3,25.3c-1,0-2-0.4-2.8-1.1c-0.4-0.4-0.7-0.8-0.9-1.3c-0.1-0.3,0-0.7,0.4-0.9c0.3-0.1,0.7,0,0.9,0.4
		c0.1,0.3,0.3,0.6,0.6,0.8c0.5,0.5,1.1,0.8,1.8,0.8c1,0,2-0.6,2.4-1.6c0.1-0.3,0.5-0.5,0.9-0.4c0.3,0.1,0.5,0.5,0.4,0.9
		C40.3,24.4,38.9,25.3,37.3,25.3z"/>
	<path class="st0" d="M33.2,19c-0.4,0-0.7-0.3-0.7-0.7v-0.4c0-0.4,0.3-0.7,0.7-0.7s0.7,0.3,0.7,0.7v0.4C33.9,18.7,33.6,19,33.2,19z"
		/>
	<path class="st0" d="M41.3,19c-0.4,0-0.7-0.3-0.7-0.7v-0.4c0-0.4,0.3-0.7,0.7-0.7c0.4,0,0.7,0.3,0.7,0.7v0.4
		C41.9,18.7,41.6,19,41.3,19z"/>
</g>
<path class="st8" d="M23.5,36.8v9.3H3.2v-9.3c0-2.8,2.2-5,5-5h10.3C21.3,31.9,23.5,34.1,23.5,36.8z"/>
<path class="st9" d="M18.5,31.9h-2.1c2.8,0,5,2.2,5,5v9.3h2.1v-9.3C23.5,34.1,21.3,31.9,18.5,31.9z"/>
<path class="st6" d="M10.4,26.9v6c0,1.7,1.3,3,3,3l0,0c1.7,0,3-1.3,3-3v-6H10.4z"/>
<path class="st7" d="M23.9,19.6v0.9c0,1-0.8,1.9-1.9,1.9h-0.6c-0.1,1.5-0.6,3-1.4,4.1c0,0,0,0,0,0c-1.5,2.3-4.6,3.9-7.8,3.4h0
	c-3.7-0.6-6.6-3.7-6.8-7.5H4.8c-1,0-1.9-0.8-1.9-1.9v-0.9c0-1,0.8-1.9,1.9-1.9h0.6v-2.9c2.1-0.1,2.8-0.8,2.8-2.9
	c0,0,2.7,4.9,10.7,3.4c0.8-0.1,1.6-0.3,2.4-0.6v3H22C23,17.8,23.9,18.6,23.9,19.6z"/>
<path class="st6" d="M22,17.8h-0.6v-0.6v-2.5c-0.9,0.3-1.7,0.5-2.4,0.6v2.4l0,4.6c-0.1,2.1-1,4-2.5,5.4c-1.2,1.1-2.6,1.9-4.3,2.1
	c3.2,0.5,6.3-1.1,7.8-3.4c0,0,0,0,0,0c0.5-0.6,1-1.8,1.2-3h0c0-0.2,0.1-0.5,0.1-0.7c0,0,0,0,0,0c0-0.1,0-0.2,0-0.3h0H22
	c1,0,1.9-0.8,1.9-1.9v-0.9C23.9,18.6,23,17.8,22,17.8z"/>
<g>
	<path class="st0" d="M13.4,25.3c-1,0-2-0.4-2.8-1.1c-0.4-0.4-0.7-0.8-0.9-1.3c-0.1-0.3,0-0.7,0.4-0.9c0.3-0.1,0.7,0,0.9,0.4
		c0.1,0.3,0.3,0.6,0.6,0.8c0.5,0.5,1.1,0.8,1.8,0.8c1,0,2-0.6,2.4-1.6c0.1-0.3,0.5-0.5,0.9-0.4c0.3,0.1,0.5,0.5,0.4,0.9
		C16.4,24.4,15,25.3,13.4,25.3z"/>
	<path class="st0" d="M9.4,19c-0.4,0-0.7-0.3-0.7-0.7v-0.4c0-0.4,0.3-0.7,0.7-0.7c0.4,0,0.7,0.3,0.7,0.7v0.4C10,18.7,9.7,19,9.4,19z
		"/>
	<path class="st0" d="M17.4,19c-0.4,0-0.7-0.3-0.7-0.7v-0.4c0-0.4,0.3-0.7,0.7-0.7s0.7,0.3,0.7,0.7v0.4C18,18.7,17.7,19,17.4,19z"/>
</g>
<path class="st7" d="M5.3,38.3H3.6c-1,0-1.7-0.8-1.7-1.7v-3.8c0-1,0.8-1.7,1.7-1.7h1.7c0.7,0,1.3,0.6,1.3,1.3V37
	C6.5,37.7,6,38.3,5.3,38.3z"/>
<g>
	<path class="st9" d="M20.8,40.8v5.4h-1.4v-5.4c0-0.4,0.3-0.7,0.7-0.7S20.8,40.4,20.8,40.8z"/>
	<path class="st9" d="M7.3,40.8v5.4H5.9v-5.4c0-0.4,0.3-0.7,0.7-0.7S7.3,40.4,7.3,40.8z"/>
</g>
<path class="st5" d="M44.7,40.8v5.4h-1.4v-5.4c0-0.4,0.3-0.7,0.7-0.7C44.4,40.1,44.7,40.4,44.7,40.8z"/>
</svg>
