<?xml version="1.0" encoding="utf-8"?>
<!-- Generator: Adobe Illustrator 22.0.0, SVG Export Plug-In . SVG Version: 6.00 Build 0)  -->
<svg version="1.1" id="Layer_1" xmlns="http://www.w3.org/2000/svg" xmlns:xlink="http://www.w3.org/1999/xlink" x="0px" y="0px"
	 viewBox="0 0 50 50" style="enable-background:new 0 0 50 50;" xml:space="preserve">
<style type="text/css">
	.st0{fill:#F5FE00;}
	.st1{fill:#12142D;}
	.st2{clip-path:url(#SVGID_2_);}
	.st3{fill:#D43B35;}
	.st4{fill:#FFFFFF;}
</style>
<g>
	<path class="st0" d="M24.8,49.3c-13.5,0-24.5-11-24.5-24.5c0-13.5,11-24.5,24.5-24.5c13.5,0,24.5,11,24.5,24.5
		C49.3,38.3,38.3,49.3,24.8,49.3z M24.8,1.8c-12.7,0-23,10.3-23,23c0,12.7,10.3,23,23,23c12.7,0,23-10.3,23-23
		C47.8,12.1,37.4,1.8,24.8,1.8z"/>
</g>
<circle class="st1" cx="24.8" cy="24.8" r="22.3"/>
<g>
	<defs>
		<circle id="SVGID_1_" cx="24.8" cy="24.8" r="22.3"/>
	</defs>
	<clipPath id="SVGID_2_">
		<use xlink:href="#SVGID_1_"  style="overflow:visible;"/>
	</clipPath>
	<g class="st2">
		<g>
			<g id="_x31_4_26_">
				<g>
					<path class="st3" d="M25.8,8.6C26.1,8.3,26,7.6,26,7c0,0,0-0.1,0-0.1c-0.4,0-0.7-0.1-1.1-0.1c-1.4,0-2.7,0.3-3.9,0.7
						c0.9,0.4,2.2,1.1,3.7,2.2C25.2,9.3,25.6,8.9,25.8,8.6z"/>
					<path class="st3" d="M31.4,14.9c-0.5,0.1-1,0.2-1.4,0.3c1.9,3.3,2.6,7.4,2.8,10.5c1.9-1.9,3.1-4.5,3.2-7.3
						C34.7,16.8,33,14.8,31.4,14.9z"/>
					<path class="st3" d="M20.2,12.1c1.3-0.3,2.6-0.9,3.6-1.6C21.7,9,20,8.3,19.7,8.2c-2.1,1.2-3.9,3-4.9,5.2c1.3-0.5,2.7-0.8,4.1-1
						C19.3,12.3,19.8,12.2,20.2,12.1z"/>
					<path class="st3" d="M27.9,12.4c0.1,0.1,0.2,0.2,0.4,0.4c0.4,0.5,0.8,0.9,1.2,1.5c0.5-0.2,1.1-0.3,1.9-0.4
						c1.7-0.2,3.3,1.2,4.6,2.7c-0.3-2.3-1.3-4.4-2.7-6c-0.8,0.1-1.7,0.3-2.6,0.5C30,11.2,29,11.7,27.9,12.4z"/>
					<path class="st3" d="M26.4,18.2c0.5-1.5,1-2.7,2-3.4c-0.3-0.4-0.6-0.9-1-1.2c-0.2-0.2-0.3-0.3-0.5-0.5
						c-4.1,2.8-9.7,7.9-10.2,12.3c1.7,1.9,4,3.1,6.7,3.5c1-1.9,1.9-5.8,2.4-8.1C26,19.7,26.3,18.8,26.4,18.2z"/>
					<path class="st3" d="M21.8,15.7c1.4-1.3,2.9-2.5,4.3-3.4c-0.5-0.4-0.9-0.8-1.4-1.1c-1.1,0.9-2.6,1.7-4.3,2
						c-0.5,0.1-0.9,0.2-1.4,0.3c-1.7,0.3-3.4,0.6-4.8,1.4c-0.3,1-0.4,2-0.4,3c0,2.4,0.7,4.5,2,6.3C16.6,21,19.4,17.9,21.8,15.7z"/>
					<path class="st3" d="M27.1,11.6c1.3-0.8,2.5-1.4,3.2-1.6c0.7-0.2,1.3-0.3,1.9-0.4C30.8,8.3,29,7.4,27.1,7
						c0,0.8,0.1,1.6-0.4,2.2c-0.2,0.3-0.6,0.7-1.1,1.1C26.1,10.8,26.6,11.2,27.1,11.6z"/>
					<path class="st3" d="M27.5,18.5c-0.2,0.6-0.4,1.5-0.6,2.6c-0.7,3.2-1.5,6.1-2.3,7.9c0.1,0,0.2,0,0.4,0c2.6,0,5-0.9,6.8-2.4
						c-0.1-3.2-0.8-7.6-2.7-10.9C28.3,16.3,27.9,17.1,27.5,18.5z"/>
				</g>
			</g>
		</g>
		<path class="st4" d="M40.2,33.1C40.2,33.1,40.2,33.1,40.2,33.1c0-1.7-1.4-3.1-3-3.1H16.8c-0.4,0-0.7,0.3-0.7,0.7
			c0,0.4,0.3,0.7,0.7,0.7h20.4c0.9,0,1.6,0.7,1.6,1.6c0,0.9-0.7,1.6-1.6,1.6H12c-0.9,0-1.6-0.7-1.6-1.6c0-0.9,0.7-1.6,1.6-1.6H14
			c0.4,0,0.7-0.3,0.7-0.7c0-0.4-0.3-0.7-0.7-0.7H12c-1.7,0-3,1.4-3,3c0,0,0,0,0,0.1c0,0,0,1,0.4,1.5c0.4,0.5,1.2,1.3,2,1.4l0.5,2.1
			l0.4,1.5l3.6,14.6c0.1,0.3,0.4,0.6,0.7,0.6c0.1,0,0.1,0,0.2,0c0.4-0.1,0.6-0.5,0.5-0.9L16.1,49h3.1l0.6,5c0,0.4,0.4,0.7,0.7,0.7
			c0,0,0.1,0,0.1,0c0.4-0.1,0.7-0.4,0.6-0.8L20.7,49h3.1V54c0,0.4,0.3,0.7,0.7,0.7c0.4,0,0.7-0.3,0.7-0.7V49h3.1l-0.6,4.8
			c-0.1,0.4,0.2,0.8,0.6,0.8c0,0,0.1,0,0.1,0c0.4,0,0.7-0.3,0.7-0.7l0.6-5H33l-1.2,4.8c-0.1,0.4,0.1,0.8,0.5,0.9c0.1,0,0.1,0,0.2,0
			c0.3,0,0.6-0.2,0.7-0.6l3.6-14.6l0.4-1.5l0.5-2.1c0.9-0.2,1.7-0.8,2-1.4S40.2,33.1,40.2,33.1z M12.9,36.1h4.7l0.2,2h-4.4
			L12.9,36.1z M13.8,39.6h4.3l0.2,2h-4L13.8,39.6z M15.8,47.5l-1.1-4.5h3.8l0.6,4.5H15.8z M23.8,47.5h-3.3L20,43.1h3.9V47.5z
			 M23.8,41.6h-4l-0.2-2h4.3V41.6z M23.8,38.1h-4.5l-0.2-2h4.7V38.1z M28.6,47.5h-3.3v-4.5h3.9L28.6,47.5z M29.4,41.6h-4v-2h4.3
			L29.4,41.6z M29.8,38.1h-4.5v-2H30L29.8,38.1z M33.4,47.5h-3.3l0.6-4.5h3.8L33.4,47.5z M34.9,41.6h-4l0.2-2h4.3L34.9,41.6z
			 M35.7,38.1h-4.4l0.2-2h4.7L35.7,38.1z"/>
	</g>
</g>
</svg>
