<?xml version="1.0" encoding="utf-8"?>
<!-- Generator: Adobe Illustrator 22.0.0, SVG Export Plug-In . SVG Version: 6.00 Build 0)  -->
<svg version="1.1" id="Layer_1" xmlns="http://www.w3.org/2000/svg" xmlns:xlink="http://www.w3.org/1999/xlink" x="0px" y="0px"
	 viewBox="0 0 46 40" style="enable-background:new 0 0 46 40;" xml:space="preserve">
<style type="text/css">
	.st0{fill:#D43B35;}
	.st1{fill:#FFFFFF;}
</style>
<g>
	<path class="st0" d="M21.4,12.1c0,4.8,3.9,8.7,8.7,8.7c4.8,0,8.7-3.9,8.7-8.7s-3.9-8.7-8.7-8.7C25.3,3.5,21.4,7.3,21.4,12.1z"/>
	<path class="st1" d="M35.9,25.1v-3.9c-1.5,0.9-3.4,1.5-5.6,1.5C18,22.7,16.8,5.4,26.7,2c-0.6-0.6-1.4-0.9-2.3-0.9
		c-1.9,0-3.5,1.6-3.5,3.5v1.8c-4.6,1.5-8,5.8-8,11v7.7L10,28.3c-1.3,1.4-1.3,3.6,0,4.9c0.7,0.7,1.5,1,2.5,1h23.8
		c1.9,0,3.5-1.6,3.5-3.5c0-0.9-0.4-1.8-1-2.4L35.9,25.1z"/>
	<path class="st1" d="M24.4,38.9c2,0,3.8-1,4.8-2.5h-9.6C20.6,37.9,22.4,38.9,24.4,38.9z"/>
</g>
</svg>
