<?xml version="1.0" encoding="utf-8"?>
<!-- Generator: Adobe Illustrator 22.0.0, SVG Export Plug-In . SVG Version: 6.00 Build 0)  -->
<svg version="1.1" id="Layer_1" xmlns="http://www.w3.org/2000/svg" xmlns:xlink="http://www.w3.org/1999/xlink" x="0px" y="0px"
	 viewBox="0 0 46 40" style="enable-background:new 0 0 46 40;" xml:space="preserve">
<style type="text/css">
	.st0{fill:none;stroke:#FFFFFF;stroke-linecap:round;stroke-linejoin:round;stroke-miterlimit:10;}
	.st1{fill:#FFFFFF;}
</style>
<g>
	<line class="st0" x1="2.3" y1="18.7" x2="11.9" y2="18.7"/>
	<line class="st0" x1="4.3" y1="22.1" x2="12.9" y2="22.1"/>
	<line class="st0" x1="5.8" y1="26.1" x2="14.4" y2="26.1"/>
	<g>
		<g>
			<path class="st1" d="M28.2,22.1l-0.9-0.6l0.9-0.7c0.2-0.1,0.2-0.4,0.1-0.5c-0.1-0.2-0.4-0.2-0.5-0.1l-1,0.6l-0.1-1
				c-0.1-0.2-0.3-0.4-0.4-0.4c-0.2,0.1-0.4,0.3-0.4,0.4l0.1,1.1l-0.8-0.6c-0.2-0.1-0.4-0.1-0.6,0.1c0.1,0.2,0.1,0.4,0.2,0.5l0.9,0.6
				l-0.9,0.6c-0.2,0.1-0.2,0.4-0.1,0.5s0.2,0.2,0.4,0.2s0.1,0,0.2-0.1l0.9-0.6l0.1,1.1c0.1,0.2,0.3,0.4,0.4,0.4
				c0.2-0.1,0.4-0.3,0.4-0.4L27,22.1l0.8,0.6c0.1,0,0.1,0.1,0.2,0.1s0.2-0.1,0.4-0.2C28.4,22.5,28.3,22.3,28.2,22.1z"/>
		</g>
	</g>
	<g>
		<g>
			<path class="st1" d="M34.4,22.1l-0.9-0.6l0.9-0.6c0.2-0.1,0.2-0.4,0.1-0.5c-0.1-0.2-0.4-0.2-0.5-0.1l-0.9,0.5v-1
				c-0.1-0.2-0.3-0.4-0.4-0.4c-0.3,0-0.5,0.2-0.5,0.4l0.1,1.1l-0.8-0.6c-0.2-0.1-0.4-0.1-0.6,0.1c-0.1,0.2-0.1,0.4,0.1,0.6l0.9,0.6
				L31,22.2c-0.2,0.1-0.2,0.4-0.1,0.5s0.2,0.2,0.4,0.2c0.1,0,0.1,0,0.2-0.1l0.9-0.6l0.1,1.1c0.1,0.2,0.3,0.4,0.4,0.4
				c0.2-0.1,0.4-0.3,0.4-0.4l-0.1-1l0.8,0.6c0.1,0,0.1,0.1,0.2,0.1c0.1-0.1,0.2-0.1,0.4-0.2C34.6,22.5,34.6,22.2,34.4,22.1z"/>
		</g>
	</g>
	<g>
		<g>
			<path class="st1" d="M40.3,22l-0.9-0.6l0.9-0.6c0.2-0.1,0.2-0.4,0.1-0.5c-0.1-0.2-0.4-0.2-0.5-0.1l-1,0.6l-0.1-1.1
				c-0.1-0.2-0.3-0.4-0.4-0.4c-0.2,0.1-0.4,0.3-0.4,0.4l0.1,1.1l-0.9-0.6c-0.2-0.1-0.4-0.1-0.6,0.1c-0.1,0.2-0.1,0.4,0.1,0.6
				l0.9,0.6l-0.9,0.6c-0.2,0.1-0.2,0.4-0.1,0.5c0.1,0.1,0.2,0.2,0.4,0.2c0.1,0,0.1,0,0.2-0.1l0.9-0.6l0.1,1.1
				c0.1,0.2,0.3,0.4,0.4,0.4c0.2-0.1,0.4-0.3,0.4-0.4l-0.1-1.1l0.8,0.6c0.1,0,0.1,0.1,0.2,0.1c0.1,0,0.2-0.1,0.4-0.2
				C40.5,22.4,40.5,22.2,40.3,22z"/>
		</g>
	</g>
	<g>
		<path class="st1" d="M35.2,12.9h-20c-2.1,0-4,0.8-5.5,2c0.1,0.1,0.3,0.2,0.4,0.3l0,0c0.1,0.1,0.2,0.1,0.2,0.2l0.1,0.1
			c1.3-1,2.9-1.6,4.7-1.6h20.1c4.2,0,7.6,3.4,7.6,7.6s-3.4,7.6-7.6,7.6h-20c-0.8,0-1.6-0.1-2.3-0.4c-0.1,0.3-0.3,0.6-0.5,0.9
			c0.9,0.3,1.8,0.5,2.8,0.5h20c4.8,0,8.6-3.9,8.6-8.6S39.9,12.9,35.2,12.9z"/>
	</g>
	<g>
		<path class="st1" d="M18.8,26.1c-2.2,0-3.9-1.8-3.9-3.9s1.8-3.9,3.9-3.9s3.9,1.8,3.9,3.9S20.9,26.1,18.8,26.1z M18.8,19.2
			c-1.6,0-2.9,1.3-2.9,2.9s1.3,2.9,2.9,2.9s2.9-1.3,2.9-2.9C21.7,20.5,20.4,19.2,18.8,19.2z"/>
	</g>
</g>
</svg>
