<?xml version="1.0" encoding="utf-8"?>
<!-- Generator: Adobe Illustrator 22.0.0, SVG Export Plug-In . SVG Version: 6.00 Build 0)  -->
<svg version="1.1" id="Layer_1" xmlns="http://www.w3.org/2000/svg" xmlns:xlink="http://www.w3.org/1999/xlink" x="0px" y="0px"
	 viewBox="0 0 46 40" style="enable-background:new 0 0 46 40;" xml:space="preserve">
<style type="text/css">
	.st0{fill:none;stroke:#FFFFFF;stroke-linecap:round;stroke-linejoin:round;stroke-miterlimit:10;}
	.st1{fill:#FFFFFF;}
</style>
<line class="st0" x1="6" y1="10.6" x2="15.6" y2="10.6"/>
<line class="st0" x1="8.6" y1="15.3" x2="17.2" y2="15.3"/>
<line class="st0" x1="10.1" y1="19.3" x2="18.7" y2="19.3"/>
<g>
	<g>
		<path class="st1" d="M19.4,26.2l-1.1,0.2l0.2-1.1c0.1-0.2-0.1-0.4-0.3-0.4c-0.2-0.1-0.4,0.1-0.4,0.3l-0.3,1.1l-0.8-0.7
			c-0.2-0.1-0.5-0.1-0.6,0c-0.1,0.2-0.1,0.5,0,0.6l0.8,0.7l-1,0.2c-0.2,0.1-0.4,0.2-0.3,0.5c0.2,0.1,0.4,0.2,0.5,0.2l1.1-0.2l-0.2,1
			c-0.1,0.2,0.1,0.4,0.3,0.4c0.2,0,0.3,0,0.4-0.1s0.1-0.1,0.1-0.2l0.2-1l0.8,0.7c0.2,0.1,0.5,0.1,0.6,0c0.1-0.2,0.1-0.5,0-0.6
			l-0.8-0.7l1-0.2c0.1-0.1,0.2,0,0.2-0.1c0.1-0.1,0.1-0.2,0.1-0.4C19.8,26.3,19.6,26.2,19.4,26.2z"/>
	</g>
</g>
<g>
	<g>
		<path class="st1" d="M23.9,21.6l-1.1,0.2l0.2-1.1c0.1-0.2-0.1-0.4-0.3-0.4c-0.2-0.1-0.4,0.1-0.4,0.3l-0.2,1l-0.8-0.7
			c-0.2-0.1-0.5-0.1-0.6,0c-0.1,0.2-0.1,0.5,0,0.6l0.8,0.7l-1,0.2c-0.2,0.1-0.4,0.2-0.3,0.5c0.1,0.2,0.2,0.4,0.5,0.3l1.1-0.2
			l-0.2,1.1c-0.1,0.2,0.1,0.4,0.3,0.4c0.2,0,0.3,0,0.4-0.1s0.1-0.1,0.1-0.2l0.2-1l0.8,0.7c0.2,0.1,0.5,0.1,0.6,0
			c0.1-0.2,0.1-0.5,0-0.6l-0.8-0.7l1-0.2c0.1-0.1,0.2,0,0.2-0.1c0.1-0.1,0.1-0.2,0.1-0.4C24.2,21.7,24.1,21.6,23.9,21.6z"/>
	</g>
</g>
<g>
	<g>
		<path class="st1" d="M28.1,17.3L27,17.5l0.2-1.1c0.1-0.2-0.1-0.4-0.3-0.4c-0.2-0.1-0.4,0.1-0.4,0.3l-0.2,1l-0.8-0.7
			c-0.2-0.1-0.5-0.1-0.6,0c-0.1,0.2-0.1,0.5,0,0.6l0.8,0.7l-1,0.2c-0.2,0.1-0.4,0.2-0.3,0.5c0.1,0.2,0.2,0.4,0.5,0.3l1.1-0.2
			l-0.2,1.1c-0.1,0.2,0.1,0.4,0.3,0.4c0.2,0,0.3,0,0.4-0.1s0.1-0.1,0.1-0.2l0.2-1l0.8,0.7c0.2,0.1,0.5,0.1,0.6,0
			c0.1-0.2,0.1-0.5,0-0.6l-0.8-0.7l1-0.2c0.1-0.1,0.2,0,0.2-0.1s0.1-0.2,0.1-0.4C28.5,17.4,28.3,17.2,28.1,17.3z"/>
	</g>
</g>
<g>
	<g>
		<path class="st1" d="M32.2,13l-1.1,0.2l0.2-1.1c0.1-0.2-0.1-0.4-0.3-0.4c-0.2-0.1-0.4,0.1-0.4,0.3l-0.3,1.1l-0.8-0.7
			c-0.2-0.1-0.5-0.1-0.6,0c-0.1,0.2-0.1,0.5,0,0.6l0.8,0.7l-1,0.2c-0.2,0.1-0.4,0.2-0.3,0.5c0.1,0.2,0.2,0.4,0.5,0.3l1.1-0.2
			l-0.2,1.1c-0.1,0.2,0.1,0.4,0.3,0.4c0.2,0,0.3,0,0.4-0.1s0.1-0.1,0.1-0.2l0.2-1l0.8,0.7c0.2,0.1,0.5,0.1,0.6,0
			c0.1-0.2,0.1-0.5,0-0.6l-0.8-0.7l1-0.2c0.1-0.1,0.2,0,0.2-0.1c0.1-0.1,0.1-0.2,0.1-0.4C32.6,13.1,32.4,13,32.2,13z"/>
	</g>
</g>
<path class="st0" d="M9.3,23.5c0,0-2.7,1.8-1.7,2.8c0,0,1.9,2.1,2.4,2.1s3.1-1.2,5.2,0.5c2.2,1.7,1.2,4.7,1.2,4.7s-0.4,1.2,0.4,1.9
	s1.5,1.9,3,1.1l20-20.2c0,0,1.8-1.4,0.3-2.5c-1.4-1.1-1.4-1.6-2.6-1.4s-3.2,0.1-4.6-1.1c-1.1-1-1.5-2.5-1-4.1c0.4-1.3-0.1-2-0.6-2.5
	c-0.4-0.4-1.3-1.5-2.9-0.4s-4.7,4.2-4.7,4.2"/>
</svg>
