<?xml version="1.0" encoding="utf-8"?>
<!-- Generator: Adobe Illustrator 22.0.0, SVG Export Plug-In . SVG Version: 6.00 Build 0)  -->
<svg version="1.1" id="Layer_1" xmlns="http://www.w3.org/2000/svg" xmlns:xlink="http://www.w3.org/1999/xlink" x="0px" y="0px"
	 viewBox="0 0 18 17.1" style="enable-background:new 0 0 18 17.1;" xml:space="preserve">
<style type="text/css">
	.st0{fill:#FFFFFF;}
</style>
<g>
	<g>
		<path class="st0" d="M11.9,7.8l-1.6-1.2c-0.3-0.2-0.7,0-0.7,0.4v0.7H1.7C1.5,7.8,1.3,8,1.3,8.2s0.2,0.4,0.4,0.4h7.9v0.7
			c0,0.4,0.4,0.6,0.7,0.4l1.6-1.2C12.2,8.4,12.2,8,11.9,7.8z"/>
	</g>
</g>
<g>
	<g>
		<path class="st0" d="M9.6,1.2c-2.6,0-4.8,1.4-6,3.5C3.4,4.9,3.5,5.2,3.7,5.3c0.2,0.1,0.5,0.1,0.6-0.2c1.1-1.8,3-3,5.3-3
			c3.4,0,6.1,2.7,6.1,6.1s-2.7,6.1-6.1,6.1c-2.2,0-4.2-1.2-5.3-3C4.2,11,3.9,11,3.7,11.1c-0.2,0.1-0.3,0.4-0.2,0.6
			c1.2,2.1,3.5,3.5,6,3.5c3.9,0,7-3.1,7-7C16.6,4.4,13.5,1.2,9.6,1.2z"/>
	</g>
</g>
</svg>
