<?xml version="1.0" encoding="utf-8"?>
<!-- Generator: Adobe Illustrator 22.0.0, SVG Export Plug-In . SVG Version: 6.00 Build 0)  -->
<svg version="1.1" id="Capa_1" xmlns="http://www.w3.org/2000/svg" xmlns:xlink="http://www.w3.org/1999/xlink" x="0px" y="0px"
	 viewBox="0 0 480.5 480.5" style="enable-background:new 0 0 480.5 480.5;" xml:space="preserve">
<style type="text/css">
	.st0{fill:url(#SVGID_1_);}
	.st1{fill:url(#SVGID_2_);}
	.st2{fill:url(#SVGID_3_);}
</style>
<g>
	<g>
		<linearGradient id="SVGID_1_" gradientUnits="userSpaceOnUse" x1="290.9586" y1="380.3458" x2="469.7255" y2="380.3458">
			<stop  offset="0" style="stop-color:#1B1D4A"/>
			<stop  offset="1" style="stop-color:#E83E35"/>
		</linearGradient>
		<path class="st0" d="M457.1,396.3L351.8,291c-15.7,24.4-36.5,45.2-60.9,60.8l105.3,105.3c16.8,16.8,44.1,16.8,60.8,0
			C473.9,440.3,473.9,413.1,457.1,396.3z"/>
		<linearGradient id="SVGID_2_" gradientUnits="userSpaceOnUse" x1="10.7255" y1="182.8479" x2="354.9761" y2="182.8479">
			<stop  offset="0" style="stop-color:#1B1D4A"/>
			<stop  offset="1" style="stop-color:#E83E35"/>
		</linearGradient>
		<path class="st1" d="M355,182.8c0-95.1-77.1-172.1-172.1-172.1c-95.1,0-172.1,77.1-172.1,172.1S87.8,355,182.9,355
			C277.9,355,355,277.9,355,182.8z M182.9,311.9c-71.2,0-129.1-57.9-129.1-129.1S111.7,53.8,182.9,53.8
			c71.2,0,129.1,57.9,129.1,129.1S254,311.9,182.9,311.9z"/>
		<linearGradient id="SVGID_3_" gradientUnits="userSpaceOnUse" x1="82.4461" y1="132.6469" x2="182.8508" y2="132.6469">
			<stop  offset="0" style="stop-color:#1B1D4A"/>
			<stop  offset="1" style="stop-color:#E83E35"/>
		</linearGradient>
		<path class="st2" d="M82.4,182.8h28.7c0-39.5,32.2-71.7,71.7-71.7V82.4C127.5,82.4,82.4,127.5,82.4,182.8z"/>
	</g>
</g>
</svg>
