<?xml version="1.0" encoding="utf-8"?>
<!-- Generator: Adobe Illustrator 22.0.0, SVG Export Plug-In . SVG Version: 6.00 Build 0)  -->
<svg version="1.1" id="Layer_1" xmlns="http://www.w3.org/2000/svg" xmlns:xlink="http://www.w3.org/1999/xlink" x="0px" y="0px"
	 viewBox="0 0 26 17.3" style="enable-background:new 0 0 26 17.3;" xml:space="preserve">
<style type="text/css">
	.st0{fill:#FFFFFF;}
</style>
<title>SHOW</title>
<path class="st0" d="M13,0C4.4,0,0,8.7,0,8.7s3.3,8.7,13,8.7c8.8,0,13-8.6,13-8.6S21.7,0,13,0z M13,14.1c-2.9,0.1-5.3-2.3-5.4-5.2
	c0-0.1,0-0.2,0-0.2c-0.1-2.9,2.2-5.3,5.1-5.4c0.1,0,0.2,0,0.3,0c2.9-0.1,5.3,2.2,5.4,5.1c0,0.1,0,0.2,0,0.3c0.1,2.9-2.2,5.3-5.1,5.4
	C13.2,14.1,13.1,14.1,13,14.1L13,14.1z M13,5.4c-1.8,0-3.2,1.5-3.2,3.3c0,1.8,1.5,3.2,3.3,3.2c1.8,0,3.2-1.5,3.2-3.2
	C16.2,6.9,14.8,5.4,13,5.4L13,5.4z"/>
</svg>
