<?xml version="1.0" encoding="utf-8"?>
<!-- Generator: Adobe Illustrator 22.0.0, SVG Export Plug-In . SVG Version: 6.00 Build 0)  -->
<svg version="1.1" id="Layer_1" xmlns="http://www.w3.org/2000/svg" xmlns:xlink="http://www.w3.org/1999/xlink" x="0px" y="0px"
	 viewBox="0 0 24 24" style="enable-background:new 0 0 24 24;" xml:space="preserve">
<style type="text/css">
	.st0{fill:#181C4A;}
	.st1{fill:#D43B35;}
	.st2{fill:#FFFFFF;}
</style>
<path class="st0" d="M3.5,4.2V1.4c0-0.4,0.3-0.7,0.7-0.7c0.4,0,0.7,0.3,0.7,0.7v2.8c0,0.4-0.3,0.7-0.7,0.7C3.8,4.9,3.5,4.6,3.5,4.2z
	"/>
<path class="st0" d="M15.3,4.9c0.4,0,0.7-0.3,0.7-0.7V1.4c0-0.4-0.3-0.7-0.7-0.7c-0.4,0-0.7,0.3-0.7,0.7v2.8
	C14.6,4.6,14.9,4.9,15.3,4.9z"/>
<g>
	<path class="st1" d="M23,17.4c0,3.1-2.5,5.6-5.6,5.6c-3.1,0-5.6-2.5-5.6-5.6c0-3.1,2.5-5.6,5.6-5.6C20.5,11.9,23,14.3,23,17.4z"/>
</g>
<path class="st2" d="M21.6,17.4c0-2.3-1.9-4.2-4.2-4.2c-2.3,0-4.2,1.9-4.2,4.2c0,2.3,1.9,4.2,4.2,4.2C19.7,21.6,21.6,19.7,21.6,17.4
	z"/>
<rect x="3.5" y="9.1" class="st0" width="2.8" height="2.8"/>
<rect x="3.5" y="13.2" class="st0" width="2.8" height="2.8"/>
<rect x="7.7" y="9.1" class="st0" width="2.8" height="2.8"/>
<rect x="7.7" y="13.2" class="st0" width="2.8" height="2.8"/>
<path class="st0" d="M2.1,17.3V7.7h15.3v2.8h1.4V5c0-0.8-0.7-1.5-1.5-1.5h-0.6v0.7c0,0.8-0.6,1.4-1.4,1.4c-0.8,0-1.4-0.6-1.4-1.4
	V3.5H5.6v0.7C5.6,5,5,5.6,4.2,5.6C3.4,5.6,2.8,5,2.8,4.2V3.5H2.2C1.4,3.5,0.7,4.2,0.7,5v12.3c0,0.8,0.7,1.5,1.5,1.5h8.2v-1.4H2.2
	C2.1,17.4,2.1,17.4,2.1,17.3z"/>
<rect x="11.9" y="9.1" class="st0" width="2.8" height="2.8"/>
<g>
	<path class="st1" d="M19.5,17.4h-2.1v-2.1c0-0.4-0.3-0.7-0.7-0.7S16,14.9,16,15.3v2.8c0,0.4,0.3,0.7,0.7,0.7h2.8
		c0.4,0,0.7-0.3,0.7-0.7C20.2,17.7,19.9,17.4,19.5,17.4z"/>
</g>
</svg>
